<svg width="19" height="20" viewBox="0 0 19 20" fill="none" xmlns="http://www.w3.org/2000/svg">
<path d="M1.62373 19.9844C0.749415 19.9844 0.249805 19.6097 0.124903 18.9852C-0.249805 17.986 0.749415 17.3614 1.12412 17.1116C1.87354 16.612 2.24825 16.2373 2.37315 15.8626C2.37315 15.6128 2.24825 15.363 1.99844 14.9883C1.99844 14.9883 1.99844 14.8634 1.87354 14.8634C0.624512 13.2397 0 11.2412 0 9.24279C0 4.12178 4.24669 0 9.36769 0C14.4887 0 18.7354 4.12178 18.7354 9.24279C18.7354 14.3638 14.4887 18.4856 9.36769 18.4856C8.74317 18.4856 8.11866 18.3607 7.49415 18.2358C4.24669 19.8595 1.87354 19.9844 1.87354 19.9844C1.74863 19.9844 1.74863 19.9844 1.62373 19.9844ZM4.12178 13.6144C4.74629 14.4887 4.9961 15.4879 4.8712 16.3622C4.8712 16.4871 4.74629 16.7369 4.74629 16.8618C5.37081 16.612 5.99532 16.3622 6.74474 15.9875C6.99454 15.8626 7.24434 15.7377 7.49415 15.8626H7.61905C8.11866 15.9875 8.74317 16.1124 9.36769 16.1124C13.1148 16.1124 16.2373 13.1148 16.2373 9.36769C16.2373 5.62061 13.1148 2.49805 9.36769 2.49805C5.62061 2.49805 2.49805 5.49571 2.49805 9.24279C2.49805 10.7416 2.99766 12.2404 3.99688 13.3646C3.99688 13.4895 4.12178 13.4895 4.12178 13.6144Z" fill="white"/>
</svg>
